<svg width="34" height="54" viewBox="0 0 34 54" fill="none" xmlns="http://www.w3.org/2000/svg">
<g clip-path="url(#clip0_21_239)">
<path d="M20.3621 25.3157C20.3654 25.2888 20.3862 25.2638 20.41 25.2159C20.4416 25.2629 20.4656 25.2862 20.4741 25.3141C20.4916 25.3734 20.5327 25.4377 20.4631 25.4913C20.453 25.499 20.428 25.4994 20.4175 25.4922C20.3548 25.4485 20.3544 25.3812 20.3621 25.3157ZM20.7226 25.996C20.7176 26.0067 20.7137 26.0184 20.7069 26.0275C20.705 26.0299 20.6882 26.0261 20.6875 26.0228C20.6847 26.0112 20.6859 25.9983 20.6856 25.9887C20.6975 25.991 20.7102 25.9934 20.7226 25.996ZM19.9032 26.1241C19.9635 26.1243 20.0175 26.1243 20.0694 26.1245C20.0734 26.1535 20.0825 26.1727 20.0769 26.1848C20.0222 26.3024 19.9245 26.3618 19.8202 26.4146L19.8279 26.5135L21.4339 26.5053C21.3572 26.4747 21.2964 26.4123 21.2866 26.2989C21.2801 26.222 21.205 26.161 21.1333 26.1488C21.0063 26.1273 20.9311 26.0507 20.8572 25.9593C20.8334 25.9296 20.7922 25.9141 20.7413 25.8802C20.8284 25.8075 20.8993 25.7599 20.9972 25.8085C21.079 25.8494 21.1588 25.8945 21.2343 25.9352C21.2223 26.1103 21.2223 26.1103 21.4297 26.3323C21.505 26.3288 21.6027 26.2875 21.6742 26.3723L21.6768 26.3627C21.6782 26.3648 21.6791 26.3676 21.6803 26.37C21.6943 26.3648 21.7095 26.3567 21.7205 26.3606C21.7472 26.3697 21.771 26.3868 21.7951 26.4022C21.7969 26.4032 21.7892 26.4237 21.7883 26.4235C21.7593 26.4181 21.7294 26.4144 21.7027 26.4029C21.6924 26.3985 21.6868 26.3831 21.6803 26.37C21.6794 26.3702 21.6782 26.3707 21.6773 26.3712C21.6756 26.395 21.6761 26.4179 21.681 26.4389C21.6864 26.4623 21.696 26.4841 21.7093 26.5039L21.9267 26.503C21.9272 26.4979 21.9257 26.4936 21.9262 26.4885C21.9615 26.4876 21.9924 26.4936 22.0218 26.5023L33.0395 26.4464L32.218 23.0456C32.2042 23.047 32.1911 23.0503 32.1771 23.051C32.0448 23.0603 31.9326 23.1206 31.8248 23.2214C31.6782 23.3581 31.487 23.4414 31.2694 23.3703C31.1707 23.338 31.0693 23.3334 30.9695 23.3626C30.8121 23.4086 30.6588 23.3888 30.4975 23.3747C30.3446 23.3612 30.2055 23.3076 30.0578 23.2878C29.9689 23.2759 29.9 23.2462 29.8493 23.1653C29.8259 23.1279 29.7922 23.0966 29.7583 23.0657C29.7539 23.0615 29.7497 23.057 29.745 23.0531H19.7174C19.7171 23.0533 19.7169 23.0538 19.7167 23.054C19.7183 23.0559 19.7188 23.0582 19.7204 23.0603C19.7192 23.0634 19.7192 23.0664 19.7183 23.0697C19.8174 23.2349 19.8845 23.4135 19.9577 23.6055C19.855 23.6181 19.794 23.5886 19.758 23.5134C19.69 23.3705 19.6673 23.2228 19.7183 23.0697C19.716 23.0659 19.7146 23.062 19.7124 23.0585C19.7143 23.057 19.7148 23.0554 19.7164 23.054C19.7162 23.0535 19.7162 23.0533 19.716 23.0531H19.5556L19.7842 25.9583C19.8247 26.0126 19.8651 26.0675 19.9032 26.1241Z" fill="#E11313"/>
<path d="M5.74496 5.73718C5.84268 5.59154 5.94951 5.45175 6.05353 5.31009C6.06826 5.28975 6.08486 5.26567 6.10613 5.25656C6.16598 5.23084 6.22021 5.19624 6.27351 5.15954L6.80042 0.267517L5.49553 5.95926C5.59886 5.91367 5.67764 5.8377 5.74496 5.73718Z" fill="#E11313"/>
<path d="M30.4497 20.0399C30.4818 20.0175 30.5236 20.0089 30.5668 19.9916C30.5979 20.0238 30.6281 20.0507 30.6533 20.0818C30.6786 20.1126 30.6992 20.1475 30.7475 20.2185C30.619 20.216 30.5397 20.212 30.4642 20.176C30.4034 20.147 30.3929 20.0794 30.4497 20.0399ZM29.6012 20.558C29.6065 20.5531 29.6142 20.55 29.6187 20.5446C29.718 20.4247 29.8317 20.392 29.9705 20.4673C30.0413 20.4086 30.1052 20.3565 30.1683 20.3034C30.1984 20.2781 30.2361 20.2739 30.252 20.3067C30.2622 20.3284 30.2508 20.3749 30.2323 20.3934C30.1917 20.4341 30.1414 20.4654 30.0935 20.4981C30.0451 20.5309 29.9852 20.5514 29.9469 20.5928C29.8504 20.6971 29.7407 20.7228 29.6231 20.7111L29.9593 23.0532H29.8786C29.9146 23.0733 29.9476 23.1002 29.9768 23.1313C30.0621 23.2227 30.162 23.2442 30.2758 23.2255C30.3693 23.2105 30.4528 23.221 30.5449 23.2547C30.6886 23.3073 30.8464 23.2767 30.9902 23.2463C31.1316 23.2161 31.2724 23.1988 31.4143 23.1946C31.5442 23.1906 31.6639 23.1631 31.7782 23.1034C31.9108 23.0343 32.0475 22.9777 32.1927 22.9412L31.5337 20.2141C31.3128 20.1309 31.0907 20.1741 30.8579 20.2382C30.7969 20.1552 30.734 20.0692 30.6669 19.9773C30.6928 19.9593 30.7106 19.9446 30.7302 19.9333C30.9084 19.8314 31.08 19.8288 31.2759 19.9125C31.3385 19.9392 31.4051 19.9527 31.4727 19.9616L28.1219 6.09205C28.1202 6.09088 28.1172 6.09064 28.1163 6.08901C28.113 6.08433 28.1132 6.07732 28.1142 6.06984C28.1146 6.06773 28.1149 6.06586 28.1151 6.06376L27.4234 3.19989C27.4208 3.2062 27.4192 3.21275 27.4154 3.21859C27.3369 3.34342 27.2598 3.47153 27.1644 3.58233L29.6012 20.558Z" fill="#E11313"/>
<path d="M16.4454 15.8388C16.5279 15.8454 16.6034 15.8496 16.6831 15.8028C16.7509 15.7631 16.8395 15.7813 16.9185 15.7376C17.0022 15.6913 17.0945 15.7376 17.167 15.8052C17.1668 15.8047 17.1665 15.8045 17.1663 15.8042C17.2836 15.8143 17.4019 15.8192 17.5183 15.8363C17.581 15.8454 17.6348 15.8386 17.6864 15.8056C17.7065 15.793 17.7271 15.7799 17.7472 15.7668L17.2743 9.65479C17.2423 9.6625 17.2109 9.67138 17.178 9.67769C17.0891 9.69429 17.0062 9.74432 16.9225 9.78336C16.8544 9.81492 16.7883 9.84671 16.7118 9.81842C16.7104 9.82053 16.709 9.82286 16.7076 9.82497C16.7027 9.82427 16.6995 9.8245 16.6948 9.8238C16.6445 9.85255 16.5978 9.89089 16.547 9.91988L16.0835 15.938C16.1852 15.9408 16.2831 15.9216 16.3736 15.8592C16.3932 15.8459 16.4217 15.837 16.4454 15.8388Z" fill="#E11313"/>
<path d="M16.7054 9.81694C16.7075 9.81788 16.7096 9.81741 16.7115 9.81834C16.7423 9.77229 16.7683 9.7211 16.8068 9.68276C16.8655 9.62408 16.9328 9.57359 16.9995 9.52403C17.0252 9.5051 17.0684 9.47892 17.088 9.48827C17.1561 9.52076 17.2005 9.48523 17.2596 9.46629L16.92 5.07733L16.5551 9.81554C16.5941 9.8132 16.6397 9.81531 16.6949 9.82372C16.6986 9.82162 16.7016 9.81881 16.7054 9.81694Z" fill="#E11313"/>
<path d="M27.2955 3.15865C27.3093 3.13177 27.342 3.11447 27.3621 3.096C27.3799 3.10138 27.3928 3.10886 27.4033 3.11681L26.6503 0L27.1363 3.38634C27.1864 3.30639 27.253 3.24164 27.2955 3.15865Z" fill="#E11313"/>
<path d="M3.49017 37.0213C3.49087 37.022 3.49157 37.0225 3.49227 37.0229L3.49204 37.0225C3.49134 37.0222 3.49064 37.0215 3.49017 37.0213Z" fill="#E11313"/>
<path d="M4.61232 37.782C4.54756 37.7818 4.48281 37.8112 4.41666 37.8281C4.32993 37.8126 4.30211 37.7343 4.26401 37.6721C4.18008 37.5352 4.10668 37.3907 3.94725 37.3234C3.86824 37.203 3.74668 37.1487 3.61741 37.1022C3.57253 37.0861 3.53442 37.051 3.49234 37.023C3.49258 37.0234 3.49305 37.0239 3.49305 37.0239C3.49305 37.0239 3.49164 37.0227 3.49024 37.0218L3.49047 37.022C3.49164 37.0227 3.49234 37.0237 3.49211 37.0232C3.49118 37.023 3.49047 37.0225 3.48931 37.0223C3.47388 37.041 3.45845 37.0599 3.43484 37.0887C3.35442 37.0686 3.26185 37.0599 3.18284 37.0223C3.08536 36.9762 3.04982 36.8801 3.04842 36.7621C3.07671 36.7558 3.10523 36.7495 3.13351 36.7434C3.13258 36.742 3.13164 36.741 3.13047 36.7396C3.13211 36.7392 3.13421 36.7382 3.13562 36.7378C3.07998 36.6852 3.04024 36.626 2.93832 36.6197C2.92429 36.6188 2.9112 36.6146 2.89764 36.6122L7.11151 53.9004L4.77853 37.8129C4.71798 37.797 4.66351 37.7822 4.61232 37.782Z" fill="#E11313"/>
<path d="M2.65887 27.8726C2.59646 27.8154 2.51534 27.781 2.49126 27.6877C2.66963 27.7067 2.66963 27.7067 2.65887 27.8726ZM4.11991 37.0875C4.12763 37.0879 4.13955 37.0854 4.14212 37.0889C4.16316 37.1221 4.1835 37.1555 4.20056 37.1908C4.2022 37.1941 4.17906 37.2182 4.16854 37.2174C4.115 37.2146 4.10121 37.1742 4.09958 37.13C4.09911 37.1162 4.11267 37.1017 4.11991 37.0875ZM3.57991 36.6814C3.61919 36.713 3.65098 36.7677 3.69422 36.7784C3.86558 36.8207 3.92682 36.9521 3.99017 37.0943C4.03085 37.1857 4.09677 37.2661 4.15451 37.3493C4.24942 37.4863 4.36958 37.5782 4.54303 37.6064C4.61877 37.6188 4.69077 37.6574 4.7616 37.696L3.80246 31.0811H5.40563C5.37781 31.0413 5.34952 31.0018 5.32287 30.9612C5.21815 30.7999 5.09822 30.6486 5.00776 30.4784C4.93903 30.3489 4.85113 30.2384 4.72771 30.1584C4.63373 30.0979 4.56454 30.0151 4.49721 29.927C4.32773 29.7047 4.13324 29.5088 3.8948 29.3561C3.78282 29.2841 3.68511 29.1885 3.58482 29.0994C3.47145 28.9987 3.36064 28.8951 3.25194 28.7895C3.1755 28.7154 3.1215 28.6347 3.18812 28.5216C3.20846 28.4872 3.21267 28.4412 3.21641 28.3996C3.22576 28.3007 3.19022 28.2366 3.08854 28.2109C2.98568 28.185 2.90082 28.1412 2.82508 28.0529C2.90433 27.9411 2.89054 27.8448 2.77061 27.76C2.74093 27.7389 2.71615 27.7095 2.69371 27.6779L0.889263 27.6868C0.904458 27.7223 0.912406 27.7621 0.894173 27.814C0.852796 27.8191 0.806276 27.8247 0.757185 27.8308L2.8508 36.4205C2.92303 36.4128 3.01046 36.3845 3.07661 36.4626L3.07895 36.4533C3.07895 36.4535 3.07919 36.4535 3.07919 36.4535C3.08035 36.4556 3.08152 36.4582 3.08246 36.4605C3.09672 36.4554 3.11168 36.4472 3.12267 36.4509C3.14955 36.4603 3.17339 36.4773 3.19747 36.4928C3.19911 36.4937 3.19163 36.514 3.19046 36.514C3.16147 36.5084 3.13155 36.5049 3.1049 36.4935C3.09835 36.4904 3.09368 36.483 3.08947 36.4741C3.08713 36.4694 3.0848 36.465 3.08246 36.4605C3.08152 36.4607 3.08059 36.4612 3.07942 36.4617C3.07428 36.5393 3.10209 36.6005 3.16358 36.6496C3.18485 36.6667 3.20986 36.6821 3.23908 36.6966C3.18578 36.7179 3.1603 36.7279 3.13599 36.7378C3.13763 36.7392 3.13903 36.7408 3.14067 36.7424L3.1402 36.7422L3.13365 36.7436C3.1568 36.7735 3.18041 36.8025 3.20542 36.8299C3.20565 36.8301 3.20589 36.8303 3.20612 36.8306C3.25802 36.8874 3.31529 36.9379 3.38238 36.976C3.41511 36.9944 3.45041 37.0099 3.48828 37.0218C3.48851 37.0213 3.48874 37.0211 3.48898 37.0209C3.48945 37.0211 3.48968 37.0213 3.49015 37.0216C3.38846 36.8977 3.31202 36.7628 3.32861 36.579C3.43404 36.576 3.50932 36.6239 3.57991 36.6814Z" fill="#E11313"/>
<path d="M17.0802 45.0923C17.0354 45.0713 16.9844 45.0461 16.9379 45.0489C16.9033 45.051 16.8708 45.0458 16.8378 45.0428L17.0985 47.9499L17.289 45.3083C17.2401 45.2165 17.1768 45.1377 17.0802 45.0923Z" fill="#E11313"/>
<path d="M31.0444 28.721C30.8878 28.8266 30.8878 28.8266 30.8046 28.7037C30.8885 28.6815 30.9577 28.7013 31.0444 28.721ZM31.2354 28.6228C31.259 28.6263 31.2831 28.638 31.3039 28.6506C31.3399 28.6719 31.3764 28.6936 31.4075 28.7212C31.4757 28.7824 31.5685 28.6983 31.6412 28.7698C31.692 28.8198 31.7649 28.8516 31.8329 28.879C31.9309 28.9187 32.0267 28.9849 32.1422 28.9306C32.1464 28.9285 32.1534 28.9321 32.1609 28.937C32.1686 28.9419 32.1768 28.9482 32.184 28.9519C32.1868 28.9678 32.1981 28.9907 32.1915 28.998C32.1649 29.0277 32.1345 29.0742 32.1034 29.0758C31.9456 29.084 31.7873 29.0828 31.6291 29.0791C31.5402 29.0768 31.4694 29.0443 31.4418 28.9449C31.4215 28.8724 31.3523 28.8535 31.2871 28.832C31.241 28.8166 31.1931 28.7962 31.1566 28.7656C31.1372 28.7495 31.1298 28.7037 31.1361 28.6758C31.1468 28.6286 31.1912 28.6167 31.2354 28.6228ZM32.4861 28.8266C32.4884 28.8248 32.5069 28.8435 32.5179 28.8526C32.4957 28.8706 32.4734 28.8883 32.4515 28.9061C32.444 28.8979 32.4365 28.89 32.429 28.8816C32.4477 28.8629 32.4657 28.843 32.4861 28.8266ZM30.2636 28.9328C30.2349 28.9194 30.2057 28.907 30.1783 28.8914C30.1762 28.89 30.1867 28.8666 30.1973 28.8357C30.2253 28.857 30.2503 28.8727 30.2702 28.8932C30.2756 28.8991 30.2662 28.9192 30.2636 28.9328ZM28.811 43.2932C28.8005 43.2832 28.7832 43.2741 28.7818 43.2629C28.7811 43.2572 28.7844 43.2512 28.7888 43.2449C28.793 43.2385 28.7986 43.2322 28.8024 43.2259L28.8386 43.2463C28.8295 43.2619 28.8204 43.2776 28.811 43.2932ZM29.564 27.5334C29.535 27.5692 29.5102 27.5977 29.4878 27.6279C29.4586 27.6674 29.4625 27.7123 29.4941 27.7429C29.5418 27.7899 29.5955 27.8319 29.6521 27.8677C29.6771 27.8834 29.718 27.8881 29.7468 27.8799C29.7938 27.8668 29.8003 27.8219 29.7968 27.7772C29.7964 27.7712 29.8041 27.7644 29.8115 27.7527C29.8868 27.8623 29.9663 27.9563 30.0963 28.0126C30.1905 28.0536 30.2618 28.1475 30.3431 28.2191C30.3448 28.217 30.3464 28.2146 30.3483 28.2125C30.3527 28.2156 30.3569 28.2186 30.3611 28.2216C30.3859 28.2205 30.4105 28.2188 30.4348 28.2209C30.439 28.2212 30.4415 28.2457 30.4427 28.2593C30.4429 28.2609 30.4264 28.2679 30.4221 28.2651C30.4013 28.2516 30.3815 28.2364 30.3611 28.2216C30.356 28.2219 30.3511 28.2216 30.3459 28.2219C30.345 28.2209 30.3441 28.22 30.3431 28.2191C30.3188 28.2464 30.2994 28.2747 30.3062 28.3077C30.3088 28.3196 30.3144 28.332 30.3244 28.3453C30.3296 28.3521 30.3345 28.3589 30.3406 28.3647C30.399 28.4189 30.4574 28.4732 30.5182 28.5295C30.5273 28.4842 30.5351 28.4456 30.5437 28.4028C30.6351 28.4491 30.6351 28.4491 30.7496 28.6389C30.6959 28.6915 30.6393 28.7467 30.5837 28.8011C30.4832 28.8063 30.4098 28.7689 30.3934 28.6712C30.3716 28.5407 30.2833 28.4645 30.1872 28.3974C30.0783 28.3217 29.9759 28.2312 29.8359 28.2088C29.7971 28.2025 29.7608 28.1718 29.7265 28.1482C29.5406 28.0206 29.3559 27.8918 29.1593 27.7553C29.1858 27.6905 29.2133 27.6225 29.2421 27.5524C29.2334 27.5304 29.2227 27.5168 29.2108 27.5056L29.0432 27.5065C29.042 27.5664 29.0406 27.6269 29.0389 27.6996C28.8858 27.7006 28.8309 27.5958 28.7682 27.5229C28.768 27.5168 28.7699 27.5131 28.7706 27.5079L22.4016 27.5381L19.6628 27.5465L19.426 31.0811H29.4151L28.3559 40.8156C28.3704 40.8228 28.3842 40.8291 28.3975 40.8326C28.5247 40.7468 28.6383 40.6599 28.7617 40.5909C28.8622 40.5348 28.992 40.521 29.0768 40.4502C29.171 40.3716 29.287 40.3478 29.3816 40.2793C29.4062 40.2618 29.4431 40.2611 29.4693 40.2538C29.5296 40.3111 29.5044 40.3616 29.4611 40.3873C29.3248 40.4686 29.189 40.5568 29.0415 40.6122C28.8826 40.672 28.7346 40.7431 28.5955 40.8396C28.5202 40.8918 28.4344 40.9301 28.3519 40.971C28.3477 40.9731 28.3428 40.9731 28.3386 40.9748L26.9615 53.633L30.0736 40.1771C30.054 40.1743 30.0339 40.1685 30.0135 40.157C30.0222 40.1323 30.0236 40.0993 30.0383 40.0913C30.0586 40.0804 30.0799 40.0698 30.1007 40.0596L33.0085 27.4876L29.5273 27.5042C29.5394 27.5143 29.5518 27.5229 29.564 27.5334Z" fill="#E11313"/>
<path d="M17.4594 29.3449C17.4505 29.3351 17.4519 29.3157 17.4491 29.3003C17.4636 29.2982 17.4781 29.2961 17.4926 29.294C17.4954 29.3092 17.4982 29.3244 17.501 29.3395C17.4865 29.3419 17.4648 29.3508 17.4594 29.3449ZM17.245 22.9407C17.1553 22.9217 17.0643 22.9058 16.9762 22.8804C16.832 22.8387 16.6966 22.7752 16.5157 22.6812C16.6104 22.6716 16.6517 22.6674 16.7111 22.6613C16.6522 22.5613 16.5928 22.4869 16.4713 22.4743C16.4215 22.4692 16.4096 22.4621 16.3897 22.4081C16.3829 22.3901 16.3752 22.3668 16.3652 22.3368C16.4465 22.317 16.5194 22.3165 16.5833 22.3401C16.6471 22.364 16.7015 22.4114 16.746 22.4872C16.7936 22.5685 16.8603 22.6417 16.951 22.6662C16.9821 22.6744 17.0122 22.6915 17.0431 22.7062C17.0739 22.7207 17.1053 22.7331 17.1387 22.7321C17.1609 22.7314 17.184 22.7251 17.2086 22.7095C17.2425 22.7251 17.2766 22.7408 17.3124 22.7572C17.3484 22.7735 17.3862 22.7908 17.4279 22.81C17.3872 22.9173 17.3341 22.9594 17.245 22.9407ZM16.7824 33.949C16.9772 33.7619 17.0262 33.7362 17.2289 33.7428C17.048 33.8262 16.9161 33.8872 16.7824 33.949ZM16.4645 34.0728C16.4608 34.0768 16.457 34.081 16.4533 34.085C16.4484 34.0838 16.4449 34.0834 16.4402 34.0822C16.2962 34.0813 16.1985 34.1792 16.0676 34.2982C16.2088 34.0527 16.2342 34.0357 16.4315 34.0803C16.4397 34.0799 16.4467 34.0766 16.4554 34.0768C16.4591 34.0747 16.4631 34.0724 16.4668 34.07C16.4855 34.0497 16.5042 34.0294 16.5227 34.0088C16.5283 34.0151 16.5337 34.021 16.5391 34.0273C16.5145 34.042 16.4895 34.057 16.4645 34.0728ZM16.3184 22.1503C16.3245 22.1529 16.3336 22.154 16.3355 22.1585C16.3378 22.1643 16.3345 22.1723 16.3336 22.1795C16.3275 22.1772 16.3179 22.176 16.3163 22.172C16.3142 22.166 16.3175 22.1578 16.3184 22.1503ZM16.4418 22.1054C16.4484 22.1043 16.4554 22.1057 16.4624 22.1075C16.4696 22.1092 16.4769 22.112 16.4839 22.1134C16.479 22.1241 16.4753 22.1421 16.4682 22.1435C16.4556 22.1461 16.4411 22.1386 16.4271 22.1356C16.432 22.1251 16.4355 22.1066 16.4418 22.1054ZM18.1144 23.3152C18.1058 23.2623 18.1535 23.256 18.1806 23.2329C18.1055 23.1899 18.0256 23.1931 17.9438 23.2104C17.8538 23.2294 17.7762 23.1903 17.7098 23.1394C17.6745 23.1123 17.659 23.0594 17.6343 23.0176C17.7689 22.9365 17.8264 23.0269 17.8982 23.1445C17.904 23.0592 17.9073 23.0129 17.912 22.9477C17.9433 22.954 17.9767 22.9526 18.0006 22.9671C18.11 23.033 18.2353 23.076 18.3208 23.1777L17.7949 16.3814C17.7923 16.3786 17.7902 16.3756 17.7874 16.3728C17.7825 16.3674 17.7727 16.3665 17.7628 16.3627C17.7074 16.3641 17.6969 16.4074 17.6964 16.4492C17.6948 16.5411 17.699 16.6332 17.7011 16.7206C17.328 16.939 16.9683 16.8786 16.71 16.5493C16.7315 16.5296 16.752 16.5065 16.7766 16.4892C16.803 16.4707 16.8334 16.4581 16.8654 16.441C16.8593 16.4097 16.8619 16.3807 16.8493 16.3634C16.724 16.1935 16.6457 16.1633 16.4626 16.2304C16.3284 16.2797 16.1931 16.3101 16.0547 16.3129L15.6543 21.5103C15.7326 21.5932 15.8387 21.5916 15.9399 21.608C15.9406 21.6066 15.942 21.6061 15.9427 21.6045C15.9427 21.6045 15.9425 21.6056 15.9423 21.607C15.9425 21.6063 15.9427 21.6054 15.9425 21.6059C15.9432 21.607 15.9439 21.6084 15.9446 21.6101C16.0264 21.6624 16.1085 21.7148 16.1905 21.7674C16.194 21.7665 16.1978 21.7655 16.2013 21.7646L16.201 21.7655L16.2013 21.7651C16.2029 21.7681 16.2046 21.7714 16.2062 21.7744C16.2866 21.7824 16.3224 21.8441 16.36 21.903C16.3376 21.9476 16.3041 21.9413 16.2836 21.9128C16.2529 21.8698 16.2307 21.8212 16.2057 21.7744C16.2032 21.7742 16.2015 21.7728 16.1987 21.7725C16.1964 21.7711 16.1938 21.7695 16.1912 21.7679C16.1389 21.7814 16.086 21.7954 16.033 21.8097C16.0337 21.8109 16.0344 21.8123 16.0348 21.8137C16.0348 21.8137 16.0309 21.8125 16.0285 21.8116C16.0278 21.8116 16.0269 21.8111 16.0269 21.8111C16.0575 21.8548 16.0886 21.8988 16.1484 21.9832C16.0816 21.95 16.061 21.942 16.0428 21.9301C16.0157 21.9123 15.9914 21.8904 15.9642 21.8726C15.9439 21.859 15.9177 21.8525 15.9007 21.8361C15.8862 21.8221 15.8808 21.7985 15.856 21.7468C15.931 21.7749 15.9797 21.7931 16.0276 21.8109C16.0295 21.8104 16.0311 21.8099 16.0327 21.8095C16.0033 21.7435 15.9741 21.6776 15.9446 21.6117C15.9437 21.6112 15.9427 21.6105 15.9418 21.6098C15.9411 21.6098 15.9406 21.6098 15.9402 21.6096C15.8749 21.7274 15.763 21.7337 15.637 21.7347L15.2267 27.0608L16.8215 44.8577C16.983 44.8911 17.141 44.9479 17.2969 45.0047C17.3016 45.0063 17.3058 45.0096 17.3103 45.0117L17.7582 38.8038C17.7523 38.8054 17.7476 38.8101 17.7406 38.8087C17.7264 38.8017 17.7046 38.798 17.6993 38.7867C17.628 38.6362 17.6284 38.636 17.4557 38.5565C17.5029 38.3748 17.6172 38.2538 17.7958 38.1839C17.8016 38.1446 17.8059 38.106 17.8112 38.0679L18.023 35.1313C17.8944 35.0844 17.8171 34.9859 17.7577 34.8482C17.7939 34.8473 17.8215 34.8382 17.8395 34.8475C17.8991 34.8784 17.9618 34.9086 18.0111 34.9527C18.0188 34.9595 18.027 34.9651 18.0345 34.9714L18.0852 34.272C17.983 34.2867 17.9538 34.2599 17.9075 34.1584C17.8935 34.1278 17.8825 34.0955 17.8713 34.064C17.8224 33.9246 17.7423 33.8092 17.6212 33.7227C17.5877 33.6988 17.5585 33.6694 17.5267 33.6415C17.5548 33.5789 17.599 33.6156 17.634 33.6175C17.6675 33.6191 17.7002 33.6306 17.7336 33.6334C17.7757 33.6364 17.8178 33.635 17.8645 33.6355C17.9517 33.7241 18.0312 33.8047 18.1128 33.8875L18.613 26.9533L18.3442 23.479C18.2785 23.4428 18.2068 23.3921 18.1144 23.3152Z" fill="#E11313"/>
<path d="M6.14106 25.9137L5.80513 25.3465C5.80817 25.3143 5.81729 25.2811 5.81285 25.25C5.79929 25.1513 5.78035 25.0534 5.75908 24.93C5.71794 24.8463 5.52812 24.7967 5.6242 24.6209C5.75511 24.6142 5.84277 24.6602 5.86802 24.7902C5.88555 24.8809 5.88602 24.9765 5.91641 25.062C5.94469 25.1418 5.99355 25.2112 5.95428 25.3017C5.94703 25.3183 5.95942 25.3531 5.97438 25.368C6.07654 25.4718 6.07771 25.6364 6.19622 25.7316C6.2168 25.7479 6.22895 25.7984 6.21937 25.8232C6.20581 25.8583 6.16841 25.884 6.14106 25.9137ZM5.43064 24.1085C5.44654 24.0562 5.45472 23.9881 5.57137 23.9802C5.56365 24.1714 5.64804 24.3098 5.78526 24.4215C5.81004 24.4419 5.82945 24.4734 5.84113 24.5038C5.84838 24.5223 5.83996 24.5506 5.82991 24.57C5.82454 24.5805 5.79789 24.5896 5.78573 24.5854C5.70695 24.5576 5.6249 24.5337 5.5522 24.4935C5.44724 24.4353 5.38973 24.2457 5.43064 24.1085ZM5.65225 23.7855C5.6623 23.7857 5.66932 23.7859 5.67633 23.7862C5.67306 23.7978 5.67142 23.81 5.66581 23.8205C5.66394 23.8238 5.65225 23.8217 5.645 23.8222C5.64758 23.8098 5.64991 23.7971 5.65225 23.7855ZM3.54228 16.0169C3.53643 16.0144 3.53059 16.005 3.53059 15.9985C3.53059 15.9947 3.54391 15.9863 3.54672 15.9879C3.5528 15.9912 3.55583 15.9999 3.56004 16.0064C3.55396 16.0102 3.54602 16.0183 3.54228 16.0169ZM4.28519 11.9045C4.27163 11.9054 4.25807 11.9043 4.24451 11.9036C4.24615 11.8919 4.24802 11.88 4.24989 11.8683C4.26228 11.8734 4.27583 11.8776 4.28706 11.8849C4.28986 11.8865 4.28635 11.9043 4.28519 11.9045ZM14.0989 26.5878L14.3357 23.0531H5.82758C5.82734 23.0573 5.82851 23.061 5.82804 23.0652C5.8229 23.1323 5.80724 23.1985 5.79695 23.2649C5.78199 23.3628 5.76773 23.4607 5.74973 23.5816C5.64898 23.5367 5.62817 23.4738 5.62981 23.4037C5.63121 23.3537 5.64103 23.303 5.65389 23.2543C5.67329 23.1809 5.66815 23.1143 5.62396 23.0531H4.34667L5.54939 11.8849C5.5377 11.8772 5.52742 11.8678 5.5155 11.8608C5.4255 11.807 5.36074 11.8197 5.28711 11.8917C5.22843 11.9492 5.18612 12.0258 5.08864 12.0485C5.08607 12.0172 5.08583 11.994 5.08209 11.9714C5.07087 11.904 5.03207 11.8751 4.98438 11.9071C4.85628 11.9924 4.71999 12.0516 4.56734 12.0742C4.46074 12.0899 4.38874 12.0639 4.3808 12.0001C4.37402 11.9485 4.42474 11.8872 4.50376 11.8589C4.53415 11.8479 4.57202 11.8358 4.60054 11.8442C4.71882 11.8788 4.78147 11.8213 4.85558 11.7364C4.91799 11.6647 5.02108 11.6308 5.08887 11.5532C5.10851 11.5307 5.17022 11.526 5.20389 11.538C5.25765 11.5574 5.30394 11.5976 5.36121 11.6338C5.44256 11.5861 5.5148 11.5793 5.58048 11.5957L6.25841 5.29968C6.16233 5.50399 5.99425 5.64355 5.83926 5.7962C5.76773 5.86703 5.69456 5.93646 5.62139 6.00542C5.56389 6.05966 5.50545 6.11296 5.44794 6.16719L4.10191 12.0389C4.15194 12.0382 4.2029 12.0408 4.25246 12.0413C4.27256 12.0415 4.29243 12.0803 4.32983 12.1196C4.23376 12.1448 4.15802 12.1525 4.09467 12.1846C4.08298 12.1904 4.07363 12.2005 4.06311 12.2079L0.753211 26.6465L11.3604 26.596L14.0989 26.5878Z" fill="#E11313"/>
<path d="M2.86592 27.677C2.8748 27.6892 2.88205 27.7027 2.89117 27.7149C2.94049 27.781 2.99379 27.8568 3.06369 27.8928C3.25982 27.994 3.37927 28.1719 3.51322 28.3297C3.62776 28.465 3.65582 28.6492 3.66563 28.8414C3.808 28.9566 3.92418 29.1151 4.11189 29.1902C4.16379 29.211 4.21054 29.2566 4.24818 29.301C4.41766 29.502 4.62782 29.6577 4.82512 29.8279C4.87491 29.8711 4.92213 29.9237 4.95275 29.9815C5.02125 30.111 5.12013 30.2096 5.22556 30.3085C5.33519 30.4114 5.43525 30.5268 5.52548 30.6475C5.63208 30.7894 5.73236 30.9359 5.83475 31.0811H14.4399L14.1678 27.6207L2.86592 27.677Z" fill="#E11313"/>
</g>
<defs>
<clipPath id="clip0_21_239">
<rect width="32.4935" height="54" fill="white" transform="translate(0.753235)"/>
</clipPath>
</defs>
</svg>
